<svg xmlns="http://www.w3.org/2000/svg" width="34" height="34" viewBox="0 0 34 34">
  <!-- Background circle -->
  <circle cx="17" cy="17" r="16" fill="#ecfdf5" stroke="#047857" stroke-width="2" />
  
  <!-- Center the icon in the circle -->
  <g transform="translate(5, 5)" stroke="#047857" stroke-width="2" stroke-linecap="round" stroke-linejoin="round" fill="none">
    <path d="M2 9a3 3 0 0 1 0 6v2a2 2 0 0 0 2 2h16a2 2 0 0 0 2-2v-2a3 3 0 0 1 0-6V7a2 2 0 0 0-2-2H4a2 2 0 0 0-2 2Z" />
    <path d="M13 5v2" />
    <path d="M13 17v2" />
    <path d="M13 11v2" />
  </g>
</svg> 