<svg xmlns="http://www.w3.org/2000/svg" width="34" height="34" viewBox="0 0 34 34">
  <!-- Background circle -->
  <circle cx="17" cy="17" r="16" fill="#f0fdfa" stroke="#0f766e" stroke-width="2" />
  
  <!-- Center the icon in the circle -->
  <g transform="translate(5, 5)" stroke="#0f766e" stroke-width="2" stroke-linecap="round" stroke-linejoin="round" fill="none">
    <path d="M10 10h4"/>
    <path d="M19 7V4a1 1 0 0 0-1-1h-2a1 1 0 0 0-1 1v3"/>
    <path d="M20 21a2 2 0 0 0 2-2v-3.851c0-1.39-2-2.962-2-4.829V8a1 1 0 0 0-1-1h-4a1 1 0 0 0-1 1v11a2 2 0 0 0 2 2z"/>
    <path d="M 22 16 L 2 16"/>
    <path d="M4 21a2 2 0 0 1-2-2v-3.851c0-1.39 2-2.962 2-4.829V8a1 1 0 0 1 1-1h4a1 1 0 0 1 1 1v11a2 2 0 0 1-2 2z"/>
    <path d="M9 7V4a1 1 0 0 0-1-1H6a1 1 0 0 0-1 1v3"/>
  </g>
</svg> 