<svg xmlns="http://www.w3.org/2000/svg" width="34" height="34" viewBox="0 0 34 34">
  <!-- Background circle -->
  <circle cx="17" cy="17" r="16" fill="#fefce8" stroke="#a16207" stroke-width="2" />
  
  <!-- Center the icon in the circle -->
  <g transform="translate(5, 5)" stroke="#a16207" stroke-width="2" stroke-linecap="round" stroke-linejoin="round" fill="none">
    <path d="m16 2-2.3 2.3a3 3 0 0 0 0 4.2l1.8 1.8a3 3 0 0 0 4.2 0L22 8"/>
    <path d="M15 15 3.3 3.3a4.2 4.2 0 0 0 0 6l7.3 7.3c.7.7 2 .7 2.8 0L15 15Zm0 0 7 7"/>
    <path d="m2.1 21.8 6.4-6.3"/>
    <path d="m19 5-7 7"/>
  </g>
</svg> 