<?xml version="1.0" encoding="UTF-8" standalone="no"?><!DOCTYPE svg PUBLIC "-//W3C//DTD SVG 1.1//EN" "http://www.w3.org/Graphics/SVG/1.1/DTD/svg11.dtd"><svg width="100%" height="100%" viewBox="0 0 216 252" version="1.1" xmlns="http://www.w3.org/2000/svg" xmlns:xlink="http://www.w3.org/1999/xlink" xml:space="preserve" xmlns:serif="http://www.serif.com/" style="fill-rule:evenodd;clip-rule:evenodd;stroke-linecap:round;stroke-linejoin:round;stroke-miterlimit:1.5;"><path d="M169.354,171.097c-1.951,4.445 -7.143,6.47 -11.588,4.52c-4.445,-1.951 -6.47,-7.143 -4.519,-11.588c0.989,-2.254 1.632,-4.507 1.949,-6.739c0.682,-4.806 5.138,-8.154 9.944,-7.472c4.806,0.682 8.154,5.138 7.472,9.944c-0.533,3.752 -1.595,7.546 -3.258,11.335Zm-5.926,-44.38c2.918,3.879 2.138,9.398 -1.74,12.316c-3.879,2.919 -9.398,2.139 -12.316,-1.74c-3.028,-4.023 -6.993,-7.582 -11.577,-10.501c-4.094,-2.607 -5.301,-8.048 -2.694,-12.143c2.607,-4.094 8.049,-5.301 12.143,-2.694c6.424,4.091 11.941,9.124 16.184,14.762Zm-46.352,-25.428c4.822,0.562 8.28,4.933 7.717,9.755c-0.562,4.821 -4.933,8.279 -9.755,7.716c-5.239,-0.611 -10.666,-0.468 -16.081,0.586c-4.765,0.928 -9.386,-2.188 -10.313,-6.953c-0.928,-4.764 2.188,-9.386 6.953,-10.313c7.233,-1.408 14.482,-1.608 21.479,-0.791Zm-50.682,14.081c3.848,-2.959 9.374,-2.237 12.333,1.611c2.959,3.849 2.237,9.375 -1.611,12.334c-4.109,3.159 -8.02,7.058 -11.644,11.758c-2.964,3.844 -8.492,4.559 -12.336,1.595c-3.844,-2.964 -4.559,-8.492 -1.595,-12.336c4.617,-5.988 9.618,-10.937 14.853,-14.962Zm-29.625,42.419c1.495,-4.619 6.459,-7.154 11.077,-5.658c4.618,1.496 7.153,6.459 5.657,11.077c-1.777,5.488 -2.537,10.711 -2.416,15.636c0.119,4.853 -3.724,8.889 -8.577,9.008c-4.852,0.12 -8.889,-3.724 -9.008,-8.576c-0.166,-6.766 0.825,-13.949 3.267,-21.487Zm6.806,52.732c-2.703,-4.032 -1.623,-9.5 2.409,-12.202c4.033,-2.703 9.5,-1.623 12.203,2.409c2.995,4.469 6.76,8.411 10.982,11.779c3.795,3.028 4.418,8.566 1.391,12.361c-3.028,3.794 -8.566,4.417 -12.361,1.39c-5.633,-4.494 -10.63,-9.776 -14.624,-15.737Zm42.642,30.216c-4.661,-1.355 -7.345,-6.239 -5.99,-10.9c1.355,-4.662 6.239,-7.346 10.901,-5.991c5.402,1.571 10.835,2.356 15.931,2.222c4.852,-0.128 8.895,3.708 9.023,8.561c0.128,4.852 -3.708,8.896 -8.561,9.023c-6.812,0.18 -14.082,-0.815 -21.304,-2.915Zm52.71,-10.578c-3.34,3.522 -8.912,3.67 -12.434,0.329c-3.522,-3.34 -3.669,-8.911 -0.329,-12.433c3.567,-3.761 7.973,-8.921 10.111,-12.959c2.271,-4.29 7.598,-5.929 11.888,-3.658c4.29,2.271 5.929,7.598 3.658,11.888c-2.757,5.209 -8.293,11.982 -12.894,16.833Zm-8.004,-46.148c4.214,2.409 5.679,7.786 3.27,12c-2.41,4.214 -7.787,5.68 -12.001,3.27c-3.866,-2.21 -7.054,-4.03 -8.62,-5.064c-4.051,-2.674 -5.168,-8.134 -2.494,-12.185c2.675,-4.051 8.135,-5.169 12.186,-2.494c1.389,0.917 4.229,2.512 7.659,4.473Z"/><path d="M97.834,60.926l0,91.875" style="fill:none;stroke:#fff;stroke-width:30px;"/><circle cx="134.363" cy="55.289" r="41.715" style="fill:#6eceff;stroke:#000;stroke-width:5.21px;stroke-miterlimit:4;"/><path d="M174.159,67.804c0,-0 -8.572,-5.227 -12.856,-3.917c-4.547,1.391 -12.021,7.06 -14.425,12.26c-2.404,5.199 -0,18.938 -0,18.938c12.717,-4.565 22.564,-12.717 27.281,-27.281Z" style="fill:#b1eead;fill-rule:nonzero;stroke:#000;stroke-width:5.21px;stroke-miterlimit:4;"/><path d="M113.506,19.164c-0,0 -4.47,9.356 -0.407,12.417c8.655,6.52 11.535,3.6 17.722,6.575c4.74,2.278 8.523,15.99 16.93,13.553c5.782,-1.676 7.497,-10.922 11.641,-13.106c3.9,-2.055 13.224,0 13.224,0c-9.707,-22.048 -37.07,-32.518 -59.11,-19.439Z" style="fill:#b1eead;fill-rule:nonzero;stroke:#000;stroke-width:5.21px;stroke-miterlimit:4;"/><path d="M130.192,96.795c-0,0 1.39,-12.34 -0,-16.477c-1.253,-3.728 -3.766,-8.343 -8.343,-8.343c-4.577,0 -8.164,-3.644 -8.343,-8.343c-0.169,-4.449 -4.413,-10.798 -8.343,-12.514c-3.402,-1.486 -12.306,-0 -12.306,-0c-1.748,22.535 13.226,42.389 37.335,45.677Z" style="fill:#b1eead;fill-rule:nonzero;stroke:#000;stroke-width:5.21px;stroke-miterlimit:4;"/><path d="M97.834,174.251l0,-153.989c0,0 40.306,-11.594 61.789,0c20.406,11.013 20.406,58.551 -0,69.564c-21.483,11.594 -61.789,-0 -61.789,-0" style="fill:none;stroke:#000;stroke-width:18.65px;"/></svg>