<?xml version="1.0" encoding="UTF-8" standalone="no"?><!DOCTYPE svg PUBLIC "-//W3C//DTD SVG 1.1//EN" "http://www.w3.org/Graphics/SVG/1.1/DTD/svg11.dtd"><svg width="100%" height="100%" viewBox="0 0 24 24" version="1.1" xmlns="http://www.w3.org/2000/svg" xmlns:xlink="http://www.w3.org/1999/xlink" xml:space="preserve" xmlns:serif="http://www.serif.com/" style="fill-rule:evenodd;clip-rule:evenodd;stroke-linecap:round;stroke-linejoin:round;"><circle cx="12" cy="12" r="10" style="fill:#6eceff;stroke:#000;stroke-width:1.25px;"/><path d="M21.54,15c0,0 -2.055,-1.253 -3.082,-0.939c-1.09,0.334 -2.882,1.693 -3.458,2.939c-0.576,1.246 0,4.54 0,4.54c3.049,-1.094 5.409,-3.049 6.54,-6.54Z" style="fill:#b1eead;fill-rule:nonzero;stroke:#000;stroke-width:1.25px;"/><path d="M7,3.34l0,1.66c0,1.646 1.354,3 3,3c1.097,0 2,0.903 2,2c0,1.1 0.9,2 2,2c1.097,0 2,-0.903 2,-2c0,-1.1 0.9,-2 2,-2l3.17,0c-2.327,-5.286 -8.887,-7.795 -14.17,-4.66Z" style="fill:#b1eead;fill-rule:nonzero;stroke:#000;stroke-width:1.25px;"/><path d="M11,21.95l0,-3.95c0,-1.097 -0.903,-2 -2,-2c-1.097,0 -2,-0.903 -2,-2l0,-1c0,-1.097 -0.903,-2 -2,-2l-2.95,0c-0.419,5.402 3.171,10.162 8.95,10.95Z" style="fill:#b1eead;fill-rule:nonzero;stroke:#000;stroke-width:1.25px;"/></svg>